HIERARCHY
ROOT Hips
{
    OFFSET 0.000000 0.000000 0.000000
    CHANNELS 6 Xposition Yposition Zposition Zrotation Xrotation Yrotation
    JOINT Spine
    {
        OFFSET -0.000000 7.925200 0.000000
        CHANNELS 3 Zrotation Xrotation Yrotation
        JOINT Spine1
        {
            OFFSET -0.000000 23.364719 0.000000
            CHANNELS 3 Zrotation Xrotation Yrotation
            JOINT Neck
            {
                OFFSET -0.000000 23.268766 2.115342
                CHANNELS 3 Zrotation Xrotation Yrotation
                JOINT Head
                {
                    OFFSET -0.000000 13.530829 -1.932976
                    CHANNELS 3 Zrotation Xrotation Yrotation
                    End Site
                    {
                        OFFSET -0.000000 24.162195 0.000000
                    }
                }
            }
            JOINT LeftShoulder
            {
                OFFSET 3.858291 22.792089 -0.033814
                CHANNELS 3 Zrotation Xrotation Yrotation
                JOINT LeftArm
                {
                    OFFSET 7.057024 0.000000 0.000000
                    CHANNELS 3 Zrotation Xrotation Yrotation
                    JOINT LeftForeArm
                    {
                        OFFSET 34.734173 0.000000 0.000000
                        CHANNELS 3 Zrotation Xrotation Yrotation
                        JOINT LeftHand
                        {
                            OFFSET 23.943203 0.000000 0.000000
                            CHANNELS 3 Zrotation Xrotation Yrotation
                            End Site
                            {
                                OFFSET 14.497317 0.000000 0.000000
                            }
                        }
                    }
                }
            }
            JOINT RightShoulder
            {
                OFFSET -3.868823 22.792089 -0.033814
                CHANNELS 3 Zrotation Xrotation Yrotation
                JOINT RightArm
                {
                    OFFSET -7.057024 0.000000 0.000000
                    CHANNELS 3 Zrotation Xrotation Yrotation
                    JOINT RightForeArm
                    {
                        OFFSET -34.734173 0.000000 0.000000
                        CHANNELS 3 Zrotation Xrotation Yrotation
                        JOINT RightHand
                        {
                            OFFSET -23.943203 0.000000 0.000000
                            CHANNELS 3 Zrotation Xrotation Yrotation
                            End Site
                            {
                                OFFSET -14.497317 0.000000 0.000000
                            }
                        }
                    }
                }
            }
        }
    }
    JOINT LeftUpLeg
    {
        OFFSET 9.664878 0.000000 0.000000
        CHANNELS 3 Zrotation Xrotation Yrotation
        JOINT LeftLeg
        {
            OFFSET -0.000000 -38.728706 0.000000
            CHANNELS 3 Zrotation Xrotation Yrotation
            JOINT LeftFoot
            {
                OFFSET -0.000000 -40.242161 0.000000
                CHANNELS 3 Zrotation Xrotation Yrotation
                JOINT LeftToeBase
                {
                    OFFSET -0.000000 -6.282171 14.497317
                    CHANNELS 3 Zrotation Xrotation Yrotation
                    End Site
                    {
                        OFFSET -0.000000 0.000000 3.865951
                    }
                }
            }
        }
    }
    JOINT RightUpLeg
    {
        OFFSET -9.664878 0.000000 0.000000
        CHANNELS 3 Zrotation Xrotation Yrotation
        JOINT RightLeg
        {
            OFFSET -0.000000 -38.728706 0.000000
            CHANNELS 3 Zrotation Xrotation Yrotation
            JOINT RightFoot
            {
                OFFSET -0.000000 -40.242161 0.000000
                CHANNELS 3 Zrotation Xrotation Yrotation
                JOINT RightToeBase
                {
                    OFFSET -0.000000 -6.282171 14.497317
                    CHANNELS 3 Zrotation Xrotation Yrotation
                    End Site
                    {
                        OFFSET -0.000000 0.000000 3.865951
                    }
                }
            }
        }
    }
}
MOTION
Frames:    9
Frame Time:    0.008333
19.314590    74.849510    27.983356    -9.143956    -0.128015    88.853760    0.525095    9.283115    0.044168    -3.310155    0.509378    0.102051    0.252489    -1.948757    5.843487    -2.356078    -8.976303    5.522995    -1.486233    3.839566    0.542826    -39.662025    68.907593    -21.109560    1.366143    -21.970989    -20.954884    -5.328866    -21.251799    -11.154070    2.093380    6.096332    8.760685    38.156986    57.584869    25.511826    0.894749    -17.393213    12.515180    -2.482425    -17.628506    6.851874    7.099801    -43.628208    6.397463    -17.817024    72.097733    8.317265    6.124850    -29.367853    5.735125    0.000000    0.000000    0.000000    10.204474    -39.045048    0.642553    -9.703169    67.993111    6.382995    -0.828486    -33.755932    -3.657192    0.000000    0.000000    0.000000    
20.136545    74.636627    27.992096    -9.359890    -0.184164    88.684906    0.401767    8.773842    0.162757    -2.931136    0.722430    0.212187    0.072598    -2.314548    5.752780    -2.175549    -8.507349    5.506345    -1.501566    3.676000    0.320273    -35.353012    70.282478    -25.695787    2.215671    -22.480251    -22.597633    -4.500956    -21.660648    -11.197162    1.823638    5.915325    8.953784    35.041687    58.821690    28.906616    0.910781    -18.858454    13.650711    -2.217269    -19.101995    7.666523    6.869483    -43.491199    5.827219    -18.432295    72.706177    9.387922    5.806786    -30.162434    5.675760    0.000000    0.000000    0.000000    10.235355    -38.772255    0.957753    -8.863971    68.491165    5.402122    -0.645104    -34.437634    -3.340213    0.000000    0.000000    0.000000    
20.978043    74.513817    28.014204    -9.574224    -0.295700    88.427841    0.442109    8.382039    0.301864    -2.854496    0.554622    0.348155    0.270008    -2.370924    5.786445    -2.276719    -8.198383    5.492164    -1.355341    3.636088    0.259490    -30.116318    71.442345    -31.316034    3.651754    -22.228226    -23.593628    -3.394863    -21.204769    -11.383860    1.952183    5.929258    9.175505    31.371742    60.042686    32.503597    0.435917    -19.902140    14.732332    -1.460445    -20.058392    8.610256    6.843278    -43.164330    5.267106    -19.492153    73.012093    10.686899    5.596797    -30.878618    5.762405    0.000000    0.000000    0.000000    10.447935    -38.368149    0.839916    -9.505248    68.673668    6.272380    -0.685487    -34.932949    -3.480041    0.000000    0.000000    0.000000    
21.907841    74.465073    28.024786    -9.831579    -0.247837    88.233543    0.386078    7.690522    0.244934    -2.646141    0.545324    0.283588    -0.176829    -2.324697    5.823306    -1.753123    -7.911086    5.721434    -1.530634    3.301733    0.621620    -25.102936    72.061981    -36.452259    5.235128    -21.176891    -24.550289    -2.529983    -19.875656    -11.254832    1.458387    6.218399    9.553313    27.197165    60.586643    37.315746    -0.107534    -20.432003    15.680761    -2.294164    -20.568861    8.026564    6.494175    -42.683521    4.520933    -20.291899    72.999519    12.064758    5.235666    -31.540710    5.574648    0.000000    0.000000    0.000000    10.422535    -37.808941    0.865660    -9.506387    68.649925    6.373259    -0.905133    -35.523663    -3.577240    0.000000    0.000000    0.000000    
22.857712    74.501419    27.987448    -10.088276    -0.095638    87.948135    0.100716    6.922551    0.343194    -2.204312    0.549019    0.359796    -0.580679    -2.450868    5.760407    -1.440335    -7.237163    5.798802    -1.676932    3.094221    0.872871    -21.063766    72.024597    -40.893871    7.230546    -19.805819    -25.192101    -2.616455    -18.022261    -11.660681    0.839407    6.288659    9.661299    24.062534    60.577667    41.157959    -0.791950    -19.964588    16.390949    -2.074813    -20.005198    8.671702    6.100152    -42.165504    3.896574    -21.182220    72.901405    13.232175    4.881346    -31.841404    5.668265    0.000000    0.000000    0.000000    10.216646    -37.187656    0.879093    -9.374463    68.484200    6.444709    -1.007295    -35.930408    -3.588301    0.000000    0.000000    0.000000    
23.904882    74.640915    27.976576    -10.149064    0.011167    87.691254    -0.213757    6.224908    0.554108    -1.768062    0.600815    0.551828    -0.641094    -2.050055    5.724686    -1.581856    -7.286923    5.740171    -1.538995    3.090248    0.823702    -18.755629    71.304886    -43.916550    9.333740    -18.546211    -25.951080    -2.749404    -16.203133    -12.424121    0.414812    6.326068    9.246815    20.919537    60.333115    44.947857    -1.718040    -19.053986    17.298475    -1.631137    -18.929979    9.132576    5.813386    -41.060341    3.465588    -21.337574    72.379799    13.601747    4.823062    -32.293484    5.769912    0.000000    0.000000    0.000000    9.978918    -36.195889    0.773472    -9.006825    68.034584    5.978840    -0.913722    -36.142117    -3.274120    0.000000    0.000000    0.000000    
25.030056    74.871796    28.002769    -10.089126    0.126552    87.257347    -0.502903    5.690634    0.735377    -1.440843    0.371261    0.715113    -0.652675    -1.610982    5.794301    -1.841681    -7.086472    5.762197    -1.717546    2.825443    0.844993    -18.205133    70.864914    -44.612244    11.193366    -17.787176    -27.240973    -2.922075    -14.870313    -12.425343    0.311552    6.544930    9.154294    19.148161    59.525764    47.158024    -2.837922    -17.566067    18.268194    -1.643694    -17.256483    9.182510    5.811693    -39.597054    3.719831    -20.601778    71.719780    12.869272    4.778280    -32.635822    5.858241    0.000000    0.000000    0.000000    9.807397    -34.923775    0.766553    -8.743874    67.376236    5.996190    -0.956301    -36.138432    -3.242913    0.000000    0.000000    0.000000    
26.295698    75.206825    27.986940    -9.888720    0.338087    86.907433    -0.566668    5.240230    0.685388    -1.418189    -0.077991    0.658574    -1.201354    -1.303094    5.819111    -1.287104    -6.194118    5.996274    -2.001722    2.742406    1.177955    -18.671249    70.263702    -44.085590    12.808460    -17.406042    -28.724157    -3.119089    -13.895230    -12.877471    -0.130174    6.672622    9.589091    19.539976    58.540295    47.798176    -4.148108    -16.042356    19.286758    -1.043326    -15.446123    9.395914    5.551727    -37.723755    3.927458    -19.329472    70.678329    11.609385    4.769071    -32.840839    5.911162    0.000000    0.000000    0.000000    9.300913    -33.325275    0.461521    -8.495171    66.459145    6.135950    -0.979198    -35.986897    -3.069056    0.000000    0.000000    0.000000    
27.618711    75.693451    27.952248    -9.563852    0.487680    86.543137    -0.119432    4.896668    0.493197    -2.116561    -0.539710    0.478151    -1.643221    -0.739717    6.036522    -0.579917    -5.797895    6.424778    -2.146222    2.692967    1.873071    -18.150383    70.032234    -44.151798    14.276683    -17.832739    -30.596720    -3.540274    -13.672324    -12.773491    -0.207980    7.149383    10.439502    19.633799    57.812023    48.412434    -5.976100    -15.332220    20.539162    -1.200968    -14.375279    8.931696    5.291963    -35.527821    4.445957    -17.065044    69.404724    9.151143    4.783550    -32.786938    6.100184    0.000000    0.000000    0.000000    8.736282    -31.409317    0.095818    -8.023103    65.131226    6.198894    -0.742041    -35.600224    -2.815544    0.000000    0.000000    0.000000    
